<?xml version="1.0" standalone="no"?>
<!DOCTYPE svg PUBLIC "-//W3C//DTD SVG 20010904//EN"
 "http://www.w3.org/TR/2001/REC-SVG-20010904/DTD/svg10.dtd">
<svg version="1.0" xmlns="http://www.w3.org/2000/svg"
 width="752.000000pt" height="752.000000pt" viewBox="0 0 752.000000 752.000000"
 preserveAspectRatio="xMidYMid meet">

<g transform="translate(0.000000,752.000000) scale(0.100000,-0.100000)"
fill="#000000" stroke="none">
<path d="M1647 4359 c-36 -51 -28 -59 138 -142 85 -42 155 -81 155 -86 0 -20
-101 -236 -119 -255 -11 -12 -29 -42 -40 -67 -14 -32 -32 -51 -60 -67 -64 -36
-81 -68 -93 -178 -13 -121 -3 -250 22 -292 27 -45 66 -61 213 -88 208 -38 216
-36 166 62 -31 63 -34 75 -34 158 0 109 23 164 95 236 72 72 128 95 235 95
107 0 163 -23 235 -95 72 -72 95 -128 95 -235 0 -90 -9 -122 -51 -186 -9 -15
-14 -34 -11 -43 6 -15 98 -16 1085 -16 920 0 1081 2 1091 14 10 12 5 23 -22
59 -20 26 -42 72 -52 111 -45 166 26 336 172 413 151 80 317 61 439 -49 138
-127 159 -314 53 -480 -17 -26 -28 -52 -24 -58 4 -6 90 -10 241 -10 261 0 283
4 303 61 16 45 14 74 -10 165 -63 244 -218 427 -411 485 -93 27 -352 81 -594
123 l-199 34 -265 124 c-372 175 -411 183 -870 183 -313 -1 -419 -7 -745 -46
-254 -30 -418 -58 -434 -73 -7 -8 -14 -28 -16 -46 -2 -31 -4 -32 -118 -70 -64
-22 -130 -46 -146 -55 l-30 -15 10 29 c9 24 23 34 95 61 59 22 84 36 84 48 0
12 -56 47 -177 111 l-176 94 -107 5 c-104 5 -107 4 -123 -19z m197 -25 c23 -3
99 -37 179 -81 l140 -76 -69 -27 c-68 -26 -69 -26 -92 -86 -16 -41 -32 -64
-53 -76 -16 -9 -29 -13 -29 -8 0 5 16 43 35 86 19 42 35 82 35 88 0 6 -72 47
-160 91 -140 70 -158 81 -143 92 16 13 41 12 157 -3z m2036 -48 c182 -25 222
-39 500 -174 l265 -128 200 -33 c234 -38 495 -91 595 -121 l71 -21 -31 -29
c-16 -15 -30 -37 -30 -48 0 -25 73 -135 107 -162 18 -14 41 -20 73 -20 26 0
68 -3 93 -6 l46 -7 26 -71 c53 -144 60 -222 21 -248 -6 -4 -102 -8 -213 -8
l-202 0 32 68 c30 62 32 75 32 172 0 99 -2 110 -32 171 -40 81 -121 160 -200
197 -83 38 -221 43 -312 12 -233 -78 -343 -329 -241 -548 17 -35 30 -66 30
-68 0 -2 -463 -4 -1030 -4 l-1029 0 22 48 c17 39 21 66 22 152 0 97 -2 110
-30 163 -38 77 -126 158 -202 188 -43 17 -79 22 -138 22 -59 0 -95 -5 -138
-22 -76 -30 -164 -111 -202 -188 -28 -53 -30 -66 -30 -163 1 -87 4 -113 23
-154 l22 -48 -22 5 c-13 3 -68 13 -123 22 -55 10 -112 24 -127 31 -48 24 -53
46 -52 209 1 180 7 198 89 245 41 24 55 37 55 54 0 13 13 41 30 64 65 90 209
170 427 239 96 29 123 42 123 56 0 9 -4 17 -10 17 -17 0 -11 38 8 44 61 18
549 79 767 95 188 14 599 12 715 -3z m1785 -608 c36 -39 65 -74 65 -79 0 -5
-31 -9 -70 -9 l-70 0 -45 62 c-62 85 -58 107 15 100 35 -4 49 -13 105 -74z"/>
<path d="M3265 4214 c-227 -17 -561 -63 -618 -86 -34 -13 -46 -52 -24 -76 9
-10 56 -37 104 -60 l88 -43 810 -43 c699 -37 813 -41 833 -29 26 16 28 43 5
71 -23 27 -212 130 -343 188 -166 73 -187 76 -515 79 -159 1 -312 1 -340 -1z
m515 -44 c74 -6 159 -17 189 -26 75 -22 216 -86 343 -156 100 -55 126 -74 116
-83 -3 -3 -838 40 -1443 74 -166 9 -172 11 -252 47 -46 21 -83 43 -83 49 0 24
392 79 675 94 221 12 305 12 455 1z"/>
<path d="M5002 3748 c-98 -15 -180 -76 -230 -173 -35 -67 -38 -187 -6 -256 31
-66 87 -124 152 -156 48 -24 70 -28 137 -28 67 0 88 5 130 27 163 86 223 265
142 424 -61 119 -188 182 -325 162z m158 -59 c181 -82 215 -310 67 -446 -155
-142 -403 -52 -441 160 -22 118 57 247 179 294 49 19 144 15 195 -8z"/>
<path d="M5013 3659 c-75 -14 -123 -49 -158 -118 -13 -25 -16 -52 -13 -107 4
-94 37 -146 117 -186 115 -59 239 -19 295 94 30 60 33 115 11 179 -16 43 -63
101 -98 121 -30 16 -109 24 -154 17z m114 -43 c3 -2 -3 -16 -14 -30 -25 -35
-94 -37 -117 -4 -20 29 -20 35 2 42 19 6 122 0 129 -8z m-157 -77 c0 -17 -16
-16 -39 2 -20 16 -21 21 -10 35 12 15 15 14 31 -6 10 -12 18 -26 18 -31z m219
27 c9 -11 6 -17 -15 -31 -33 -21 -50 -8 -28 23 18 26 27 27 43 8z m-95 -67
c19 -15 26 -30 26 -54 0 -63 -80 -89 -119 -39 -27 35 -26 59 4 89 30 30 54 31
89 4z m141 -80 c-9 -49 -14 -52 -47 -24 -33 29 -32 79 3 108 l24 19 13 -32 c8
-20 11 -48 7 -71z m-313 74 c29 -26 24 -87 -8 -108 -33 -21 -44 -9 -44 52 0
72 16 89 52 56z m37 -164 c-17 -24 -24 -27 -35 -18 -20 16 -18 22 13 41 38 23
48 12 22 -23z m211 22 c20 -16 22 -22 11 -35 -11 -14 -16 -12 -37 13 -13 16
-24 32 -24 35 0 12 26 5 50 -13z m-66 -45 c11 -14 17 -29 13 -33 -11 -11 -111
-15 -126 -5 -11 8 -9 15 9 40 28 38 75 38 104 -2z"/>
<path d="M2228 3666 c-56 -20 -111 -69 -144 -128 -25 -46 -29 -63 -29 -128 1
-114 51 -197 149 -245 105 -51 252 -25 321 57 53 62 70 108 70 188 0 65 -4 82
-29 128 -53 94 -132 141 -241 141 -33 0 -77 -6 -97 -13z m201 -52 c169 -85
168 -330 -2 -410 -138 -64 -292 10 -327 156 -45 187 154 341 329 254z"/>
<path d="M2245 3596 c-66 -29 -125 -122 -125 -197 0 -44 49 -128 92 -156 46
-31 127 -41 180 -24 69 23 137 116 138 189 0 71 -60 159 -129 188 -41 17 -116
18 -156 0z m124 -35 c25 -16 -6 -41 -49 -41 -43 0 -74 25 -49 41 8 5 30 9 49
9 19 0 41 -4 49 -9z m-133 -48 c25 -33 14 -44 -20 -18 -10 7 -15 18 -11 24 9
15 16 14 31 -6z m204 3 c0 -16 -28 -42 -36 -33 -7 6 18 47 28 47 5 0 8 -6 8
-14z m-64 -72 c19 -28 11 -59 -21 -80 -47 -31 -109 21 -86 72 21 46 79 51 107
8z m-175 16 c24 -13 26 -66 2 -92 -9 -10 -19 -18 -23 -18 -12 0 -20 57 -13 90
6 34 7 34 34 20z m279 -52 c0 -20 -3 -44 -6 -53 -6 -14 -9 -13 -30 6 -31 29
-32 73 -2 93 27 19 38 7 38 -46z m-245 -94 c-12 -18 -20 -23 -28 -15 -7 7 -3
16 14 30 31 25 36 19 14 -15z m188 8 c10 -10 14 -22 10 -25 -7 -8 -43 21 -43
35 0 14 16 9 33 -10z m-59 -34 c19 -27 7 -38 -44 -38 -51 0 -63 11 -44 38 10
14 26 22 44 22 18 0 34 -8 44 -22z"/>
</g>
</svg>
