<?xml version="1.0" standalone="no"?>
<!DOCTYPE svg PUBLIC "-//W3C//DTD SVG 20010904//EN"
 "http://www.w3.org/TR/2001/REC-SVG-20010904/DTD/svg10.dtd">
<svg version="1.0" xmlns="http://www.w3.org/2000/svg"
 width="512.000000pt" height="512.000000pt" viewBox="0 0 512.000000 512.000000"
 preserveAspectRatio="xMidYMid meet">

<g transform="translate(0.000000,512.000000) scale(0.100000,-0.100000)"
fill="#000000" stroke="none">
<path d="M1815 3294 c-366 -38 -736 -141 -1076 -300 -114 -54 -143 -64 -190
-64 l-54 0 -40 57 c-22 32 -42 61 -44 67 -2 5 22 6 61 2 48 -5 69 -3 83 8 19
14 19 17 5 43 -28 53 -85 70 -313 94 -187 19 -210 20 -224 6 -36 -36 34 -102
120 -113 47 -7 51 -10 114 -93 l64 -86 -95 -15 c-53 -9 -101 -21 -108 -28 -8
-8 -15 -64 -19 -155 -7 -137 -23 -237 -39 -237 -4 0 -19 9 -34 21 l-26 20 0
-151 c0 -137 2 -154 20 -177 11 -14 20 -38 20 -53 0 -46 52 -105 122 -139 124
-60 266 -65 466 -17 104 26 126 36 103 50 -5 3 -16 35 -26 70 -77 284 158 550
445 505 265 -41 417 -327 301 -564 -18 -36 -54 -87 -81 -114 l-49 -49 607 -6
c334 -3 929 -10 1322 -15 393 -6 716 -8 719 -6 2 3 -5 15 -17 28 -11 12 -35
53 -53 90 -71 152 -40 326 80 445 91 91 222 135 342 113 224 -39 366 -230 337
-454 -9 -70 -33 -127 -81 -190 -21 -26 -37 -49 -37 -52 0 -9 307 -5 410 6 115
11 157 28 166 64 7 30 -6 48 -58 81 -35 22 -37 26 -27 51 6 16 13 74 16 130 5
87 3 112 -16 170 -27 82 -73 148 -143 204 -96 76 -255 136 -407 154 -45 5 -85
19 -135 45 -54 30 -90 41 -151 49 -111 14 -310 29 -505 37 l-165 7 -137 73
c-76 41 -200 107 -275 148 -364 194 -535 236 -993 241 -146 2 -283 1 -305 -1z"/>
<path d="M974 2509 c-71 -27 -137 -88 -171 -157 -24 -48 -28 -69 -28 -137 0
-67 5 -89 28 -137 67 -138 228 -209 377 -168 57 16 126 65 164 117 123 169 52
410 -144 484 -66 25 -159 24 -226 -2z"/>
<path d="M4157 2436 c-148 -54 -233 -202 -205 -356 12 -71 45 -127 108 -183
161 -145 422 -77 500 129 55 148 -14 322 -157 394 -59 30 -186 38 -246 16z"/>
</g>
</svg>
